<svg width="512" height="444" viewBox="0 0 512 444" fill="none" xmlns="http://www.w3.org/2000/svg">
<g opacity="0.31">
<mask id="mask0_101_4627" style="mask-type:luminance" maskUnits="userSpaceOnUse" x="0" y="0" width="256" height="222">
<path d="M256 0V221.158H0V0H256Z" fill="white"/>
</mask>
<g mask="url(#mask0_101_4627)">
<path d="M46.131 36.992L25.715 57.408L25.459 77.504L45.619 77.312L66.035 56.896L66.291 36.736L46.131 36.992Z" fill="#2BAAAA"/>
<path d="M93.8752 84.0321L72.3712 105.536L72.1152 126.784L93.3632 126.464L114.867 104.96L115.123 83.7761L93.8752 84.0321Z" fill="#2BAAAA"/>
<path d="M93.8752 155.968L72.3712 177.472L72.1152 198.72L93.3632 198.4L114.867 176.896L115.123 155.648L93.8752 155.968Z" fill="#2BAAAA"/>
<path d="M141.876 133.12L121.652 153.408L121.524 173.568L141.684 173.44L161.972 153.216L162.036 133.056L141.876 133.12Z" fill="#2BAAAA"/>
<path d="M189.364 180.352L169.14 200.64L169.012 220.8L189.172 220.672L209.46 200.384L209.524 180.224L189.364 180.352Z" fill="#2BAAAA"/>
<path d="M165.94 155.2L143.924 177.152L143.476 198.656L164.98 198.208L186.996 176.256L187.444 154.688L165.94 155.2Z" fill="#2BAAAA"/>
<path d="M165.684 83.7761L144.116 105.408L143.668 126.528L164.788 126.08L186.356 104.512L186.804 83.3281L165.684 83.7761Z" fill="#2BAAAA"/>
<path d="M189.299 110.4L170.355 129.344L170.291 148.224L189.171 148.16L208.115 129.216L208.179 110.336L189.299 110.4Z" fill="#2BAAAA"/>
<path d="M254.964 83.2001V108.224L237.172 126.016L215.924 126.464L216.372 105.216L238.068 83.5201L254.964 83.2001Z" fill="#2BAAAA"/>
<path d="M254.964 155.072V180.096L237.172 197.888L215.924 198.336L216.372 177.088L238.068 155.392L254.964 155.072Z" fill="#2BAAAA"/>
<path d="M188.724 36.9281L168.437 57.2161L168.629 77.7601L189.109 77.9521L209.461 57.6001L209.269 37.1201L188.724 36.9281Z" fill="#2BAAAA"/>
<path d="M254.963 11.0079V36.5439L237.171 54.3359L215.731 55.0399L216.435 33.6639L238.515 11.5839L254.963 11.0079Z" fill="#2BAAAA"/>
<path d="M22.1311 155.776L0.62707 177.28L0.371094 198.528L21.5551 198.208L43.0591 176.704L43.3791 155.52L22.1311 155.776Z" fill="#2BAAAA"/>
<path d="M166.131 11.8402L144.243 33.7282L143.731 55.1682L165.171 54.6562L187.059 32.7682L187.571 11.3282L166.131 11.8402Z" fill="#2BAAAA"/>
<path d="M230.196 0.00012207V9.08812L213.492 25.7281L196.916 25.8561L196.98 9.28012L206.26 0.00012207L230.196 0.00012207Z" fill="#2BAAAA"/>
<path d="M86.7714 0.000244141L86.6434 8.57624L69.8754 25.3442L53.2354 25.4722L53.4273 8.83224L62.1954 0.000244141L86.7714 0.000244141Z" fill="#2BAAAA"/>
<path d="M70.0684 68.0322L56.7564 81.3442L56.5645 94.4642L69.7484 94.2722L83.0604 81.0242L83.1884 67.8402L70.0684 68.0322Z" fill="#2BAAAA"/>
<path d="M20.0204 0.00012207L18.9964 7.87212L2.16445 24.7041L0.564453 24.8961V0.320122L0.884453 0.00012207H20.0204Z" fill="#2BAAAA"/>
<path d="M117.427 44.2242L104.115 57.5362L103.987 70.6562L117.107 70.4642L130.419 57.2162L130.547 44.0322L117.427 44.2242Z" fill="#2BAAAA"/>
<path d="M117.428 114.176L102.644 128.96V143.68H117.428L132.148 128.896L132.212 114.176H117.428Z" fill="#2BAAAA"/>
<path d="M117.748 187.584L104.372 200.96L104.18 214.208L117.428 214.016L130.74 200.64L130.932 187.456L117.748 187.584Z" fill="#2BAAAA"/>
<path d="M82.867 212.224L82.803 220.992H61.043L69.683 212.352L82.867 212.224Z" fill="#2BAAAA"/>
<path d="M160.244 206.144L160.052 220.992H127.604L141.876 206.4L160.244 206.144Z" fill="#2BAAAA"/>
<path d="M226.867 212.224L226.739 220.992H205.043L213.619 212.352L226.867 212.224Z" fill="#2BAAAA"/>
<path d="M213.299 67.9681L199.987 81.2801L199.859 94.4641L213.043 94.3361L226.355 81.0241L226.483 67.8401L213.299 67.9681Z" fill="#2BAAAA"/>
<path d="M213.556 137.152L197.172 153.472L196.979 169.664L213.108 169.472L229.492 153.088L229.683 136.896L213.556 137.152Z" fill="#2BAAAA"/>
<path d="M254.964 119.68V144.832L246.324 144.768V128.384L254.964 119.68Z" fill="#2BAAAA"/>
<path d="M254.988 192.832V213.952H246.796V200.128L254.988 192.832Z" fill="#2BAAAA"/>
<path d="M254.963 50.0482V70.5282L248.371 70.4642V57.1522L254.963 50.0482Z" fill="#2BAAAA"/>
<path d="M46.4504 109.952L27.1863 129.216L26.6104 147.968L45.3623 147.456L64.6263 128.128L65.2023 109.44L46.4504 109.952Z" fill="#2BAAAA"/>
<path d="M69.6193 136.896L53.2993 153.216L53.2354 169.408L69.4273 169.28L85.7473 152.96L85.8114 136.768L69.6193 136.896Z" fill="#2BAAAA"/>
<path d="M46.4511 180.352L25.779 200.96L25.3311 221.184L45.555 220.736L66.163 200.064L66.6111 179.84L46.4511 180.352Z" fill="#2BAAAA"/>
<path d="M22.3873 12.4161L0.56332 34.2401L-0.0126953 55.4881L21.2353 54.9121L43.0593 33.0881L43.6353 11.8401L22.3873 12.4161Z" fill="#2BAAAA"/>
<path d="M94.1314 12.4162L72.3074 34.2402L71.7314 55.4882L92.9794 54.9122L114.803 33.0882L115.379 11.8402L94.1314 12.4162Z" fill="#2BAAAA"/>
<path d="M141.811 63.104L123.763 81.152L123.571 99.008L141.491 98.88L159.539 80.832L159.667 62.912L141.811 63.104Z" fill="#2BAAAA"/>
<path d="M164.532 0.00012207L164.34 7.36012L142.516 29.1841L121.268 29.7601L121.908 8.51212L130.356 0.00012207L164.532 0.00012207Z" fill="#2BAAAA"/>
<path d="M22.9645 83.5842L1.14043 105.408L0.564453 126.656L21.8125 126.08L43.6364 104.256L44.2125 83.0082L22.9645 83.5842Z" fill="#2BAAAA"/>
<path d="M16.6277 62.4L16.0517 83.648L1.13965 98.624V62.848L16.6277 62.4Z" fill="#2BAAAA"/>
<path d="M17.9077 132.16L17.2677 153.408L1.13965 168.32V132.544L17.9077 132.16Z" fill="#2BAAAA"/>
</g>
<mask id="mask1_101_4627" style="mask-type:luminance" maskUnits="userSpaceOnUse" x="256" y="0" width="256" height="222">
<path d="M256 0.00012207V221.159H512V0.00012207H256Z" fill="white"/>
</mask>
<g mask="url(#mask1_101_4627)">
<path d="M465.908 36.9921L486.26 57.4081L486.516 77.5041L466.356 77.3121L446.004 56.8961L445.748 36.7361L465.908 36.9921Z" fill="#2BAAAA"/>
<path d="M418.1 84.0323L439.604 105.536L439.86 126.784L418.676 126.464L397.172 104.96L396.852 83.7762L418.1 84.0323Z" fill="#2BAAAA"/>
<path d="M418.1 155.968L439.604 177.472L439.86 198.72L418.676 198.4L397.172 176.896L396.852 155.648L418.1 155.968Z" fill="#2BAAAA"/>
<path d="M370.099 133.12L390.387 153.408L390.451 173.568L370.291 173.44L350.067 153.216L349.939 133.056L370.099 133.12Z" fill="#2BAAAA"/>
<path d="M322.611 180.352L342.899 200.64L342.963 220.8L322.803 220.672L302.579 200.384L302.451 180.224L322.611 180.352Z" fill="#2BAAAA"/>
<path d="M346.1 155.2L368.052 177.152L368.5 198.656L346.996 198.208L325.044 176.256L324.596 154.688L346.1 155.2Z" fill="#2BAAAA"/>
<path d="M346.291 83.7761L367.923 105.408L368.371 126.528L347.187 126.08L325.619 104.512L325.171 83.3281L346.291 83.7761Z" fill="#2BAAAA"/>
<path d="M322.739 110.4L341.683 129.344L341.747 148.224L322.867 148.16L303.923 129.216L303.859 110.336L322.739 110.4Z" fill="#2BAAAA"/>
<path d="M257.012 83.2002V108.224L274.804 126.016L296.052 126.464L295.604 105.216L273.972 83.5202L257.012 83.2002Z" fill="#2BAAAA"/>
<path d="M257.012 155.072V180.096L274.804 197.888L296.052 198.336L295.604 177.088L273.972 155.392L257.012 155.072Z" fill="#2BAAAA"/>
<path d="M323.252 36.9281L343.604 57.2161L343.412 77.7601L322.868 77.9521L302.58 57.6001L302.772 37.1201L323.252 36.9281Z" fill="#2BAAAA"/>
<path d="M257.012 11.0081V36.5441L274.868 54.3361L296.244 55.0401L295.54 33.6641L273.46 11.5841L257.012 11.0081Z" fill="#2BAAAA"/>
<path d="M489.844 155.776L511.348 177.28L511.668 198.528L490.42 198.208L468.916 176.704L468.66 155.52L489.844 155.776Z" fill="#2BAAAA"/>
<path d="M345.844 11.8402L367.796 33.7282L368.308 55.1682L346.868 54.6562L324.916 32.7682L324.468 11.3282L345.844 11.8402Z" fill="#2BAAAA"/>
<path d="M281.779 0.000244141L281.843 9.08824L298.483 25.7282L315.059 25.8562L314.995 9.28024L305.779 0.000244141L281.779 0.000244141Z" fill="#2BAAAA"/>
<path d="M425.267 0.000244141L425.331 8.57624L442.099 25.3442L458.739 25.4722L458.611 8.83224L449.779 0.000244141L425.267 0.000244141Z" fill="#2BAAAA"/>
<path d="M441.972 68.0323L455.22 81.3443L455.412 94.4643L442.292 94.2723L428.98 81.0243L428.788 67.8403L441.972 68.0323Z" fill="#2BAAAA"/>
<path d="M492.02 0.000366211L493.044 7.87237L509.876 24.7044L511.412 24.8964V0.320366L511.156 0.000366211H492.02Z" fill="#2BAAAA"/>
<path d="M394.611 44.2243L407.859 57.5363L408.051 70.6563L394.931 70.4643L381.619 57.2163L381.427 44.0323L394.611 44.2243Z" fill="#2BAAAA"/>
<path d="M394.547 114.176L409.331 128.96V143.68H394.611L379.827 128.896V114.176H394.547Z" fill="#2BAAAA"/>
<path d="M394.291 187.584L407.667 200.96L407.795 214.208L394.611 214.016L381.235 200.64L381.043 187.456L394.291 187.584Z" fill="#2BAAAA"/>
<path d="M429.107 212.224L429.235 220.992H450.931L442.291 212.352L429.107 212.224Z" fill="#2BAAAA"/>
<path d="M351.796 206.145L351.924 220.993H384.372L370.164 206.401L351.796 206.145Z" fill="#2BAAAA"/>
<path d="M285.171 212.224L285.235 220.992H306.995L298.355 212.352L285.171 212.224Z" fill="#2BAAAA"/>
<path d="M298.739 67.9683L312.051 81.2803L312.115 94.4643L298.931 94.3363L285.619 81.0243L285.491 67.8403L298.739 67.9683Z" fill="#2BAAAA"/>
<path d="M298.483 137.152L314.803 153.472L315.059 169.664L298.867 169.472L282.483 153.088L282.291 136.896L298.483 137.152Z" fill="#2BAAAA"/>
<path d="M257.012 119.68V144.832L265.652 144.768L265.716 128.384L257.012 119.68Z" fill="#2BAAAA"/>
<path d="M256.987 192.832V213.952H265.179L265.243 200.128L256.987 192.832Z" fill="#2BAAAA"/>
<path d="M257.012 50.0483V70.5283L263.604 70.4643L263.668 57.1523L257.012 50.0483Z" fill="#2BAAAA"/>
<path d="M465.524 109.952L484.852 129.216L485.364 147.968L466.612 147.456L447.348 128.128L446.836 109.44L465.524 109.952Z" fill="#2BAAAA"/>
<path d="M442.355 136.896L458.675 153.216L458.803 169.408L442.611 169.28L426.291 152.96L426.163 136.768L442.355 136.896Z" fill="#2BAAAA"/>
<path d="M465.524 180.352L486.196 200.96L486.644 221.184L466.484 220.736L445.812 200.064L445.364 179.84L465.524 180.352Z" fill="#2BAAAA"/>
<path d="M489.587 12.4162L511.411 34.2402L511.987 55.4882L490.739 54.9122L468.915 33.0882L468.339 11.8402L489.587 12.4162Z" fill="#2BAAAA"/>
<path d="M417.844 12.4162L439.668 34.2402L440.244 55.4882L418.996 54.9122L397.172 33.0882L396.596 11.8402L417.844 12.4162Z" fill="#2BAAAA"/>
<path d="M370.227 63.1041L388.275 81.1521L388.403 99.0081L370.547 98.8801L352.499 80.8321L352.307 62.9121L370.227 63.1041Z" fill="#2BAAAA"/>
<path d="M347.444 0.000244141L347.636 7.36024L369.46 29.1842L390.708 29.7602L390.132 8.51224L381.62 0.000244141L347.444 0.000244141Z" fill="#2BAAAA"/>
<path d="M489.075 83.5843L510.899 105.408L511.475 126.656L490.227 126.08L468.403 104.256L467.827 83.0083L489.075 83.5843Z" fill="#2BAAAA"/>
<path d="M495.347 62.4001L495.923 83.6481L510.899 98.6241V62.8481L495.347 62.4001Z" fill="#2BAAAA"/>
<path d="M494.131 132.16L494.707 153.408L510.899 168.32V132.544L494.131 132.16Z" fill="#2BAAAA"/>
</g>
</g>
<g opacity="0.31">
<mask id="mask2_101_4627" style="mask-type:luminance" maskUnits="userSpaceOnUse" x="256" y="222" width="256" height="222">
<path d="M256 443.317V222.158H512V443.317H256Z" fill="white"/>
</mask>
<g mask="url(#mask2_101_4627)">
<path d="M465.908 406.312L486.26 385.96L486.516 365.8L466.356 366.056L446.004 386.408L445.748 406.568L465.908 406.312Z" fill="#2BAAAA"/>
<path d="M418.1 359.272L439.604 337.768L439.86 316.584L418.676 316.84L397.172 338.344L396.852 359.592L418.1 359.272Z" fill="#2BAAAA"/>
<path d="M418.1 287.336L439.604 265.832L439.86 244.648L418.676 244.904L397.172 266.408L396.852 287.656L418.1 287.336Z" fill="#2BAAAA"/>
<path d="M370.099 310.184L390.387 289.896L390.451 269.736L370.291 269.864L350.067 290.152L349.939 310.248L370.099 310.184Z" fill="#2BAAAA"/>
<path d="M322.611 262.952L342.899 242.728L342.963 222.568L322.803 222.632L302.579 242.92L302.451 263.08L322.611 262.952Z" fill="#2BAAAA"/>
<path d="M346.1 288.168L368.052 266.152L368.5 244.648L346.996 245.096L325.044 267.112L324.596 288.616L346.1 288.168Z" fill="#2BAAAA"/>
<path d="M346.291 359.528L367.923 337.96L368.371 316.776L347.187 317.224L325.619 338.856L325.171 359.976L346.291 359.528Z" fill="#2BAAAA"/>
<path d="M322.739 332.904L341.683 313.96L341.747 295.08L322.867 295.144L303.923 314.088L303.859 332.968L322.739 332.904Z" fill="#2BAAAA"/>
<path d="M257.012 360.104V335.08L274.804 317.288L296.052 316.84L295.604 338.088L273.972 359.784L257.012 360.104Z" fill="#2BAAAA"/>
<path d="M257.012 288.296V263.208L274.804 245.416L296.052 244.968L295.604 266.216L273.972 287.912L257.012 288.296Z" fill="#2BAAAA"/>
<path d="M323.252 406.44L343.604 386.088L343.412 365.608L322.868 365.416L302.58 385.704L302.772 406.248L323.252 406.44Z" fill="#2BAAAA"/>
<path d="M257.012 432.296V406.824L274.868 388.968L296.244 388.264L295.54 409.64L273.46 431.72L257.012 432.296Z" fill="#2BAAAA"/>
<path d="M489.844 287.528L511.348 266.024L511.668 244.776L490.42 245.096L468.916 266.6L468.66 287.784L489.844 287.528Z" fill="#2BAAAA"/>
<path d="M345.844 431.528L367.796 409.576L368.308 388.136L346.868 388.648L324.916 410.6L324.468 431.976L345.844 431.528Z" fill="#2BAAAA"/>
<path d="M281.779 443.304L281.843 434.216L298.483 417.576L315.059 417.512L314.995 434.088L305.779 443.304H281.779Z" fill="#2BAAAA"/>
<path d="M425.267 443.304L425.331 434.792L442.099 417.96L458.739 417.832L458.611 434.472L449.779 443.304H425.267Z" fill="#2BAAAA"/>
<path d="M441.972 375.272L455.22 362.024L455.412 348.84L442.292 349.032L428.98 362.344L428.788 375.464L441.972 375.272Z" fill="#2BAAAA"/>
<path d="M492.02 443.304L493.044 435.496L509.876 418.664L511.412 418.408V443.048L511.156 443.304H492.02Z" fill="#2BAAAA"/>
<path d="M394.611 399.144L407.859 385.832L408.051 372.648L394.931 372.84L381.619 386.152L381.427 399.272L394.611 399.144Z" fill="#2BAAAA"/>
<path d="M394.547 329.128L409.331 314.408V299.624H394.611L379.827 314.408V329.192L394.547 329.128Z" fill="#2BAAAA"/>
<path d="M394.291 255.72L407.667 242.344L407.795 229.16L394.611 229.288L381.235 242.664L381.043 255.912L394.291 255.72Z" fill="#2BAAAA"/>
<path d="M429.107 231.144L429.235 222.312H450.931L442.291 230.952L429.107 231.144Z" fill="#2BAAAA"/>
<path d="M351.796 237.16L351.924 222.312H384.372L370.164 236.904L351.796 237.16Z" fill="#2BAAAA"/>
<path d="M285.171 231.144L285.235 222.312H306.995L298.355 230.952L285.171 231.144Z" fill="#2BAAAA"/>
<path d="M298.739 375.4L312.051 362.088L312.115 348.84L298.931 348.968L285.619 362.28L285.491 375.464L298.739 375.4Z" fill="#2BAAAA"/>
<path d="M298.483 306.216L314.803 289.832L315.059 273.64L298.867 273.832L282.483 290.216L282.291 306.408L298.483 306.216Z" fill="#2BAAAA"/>
<path d="M257.012 323.624V298.472L265.652 298.536L265.716 314.92L257.012 323.624Z" fill="#2BAAAA"/>
<path d="M256.987 250.472V229.352L265.179 229.416L265.243 243.176L256.987 250.472Z" fill="#2BAAAA"/>
<path d="M257.012 393.256V372.84H263.604L263.668 386.216L257.012 393.256Z" fill="#2BAAAA"/>
<path d="M465.524 333.352L484.852 314.088L485.364 295.336L466.612 295.912L447.348 315.176L446.836 333.928L465.524 333.352Z" fill="#2BAAAA"/>
<path d="M442.355 306.408L458.675 290.152L458.803 273.96L442.611 274.024L426.291 290.344L426.163 306.536L442.355 306.408Z" fill="#2BAAAA"/>
<path d="M465.524 263.016L486.196 242.344L486.644 222.184L466.484 222.632L445.812 243.24L445.364 263.464L465.524 263.016Z" fill="#2BAAAA"/>
<path d="M489.587 430.888L511.411 409.064L511.987 387.816L490.739 388.456L468.915 410.216L468.339 431.464L489.587 430.888Z" fill="#2BAAAA"/>
<path d="M417.844 430.888L439.668 409.064L440.244 387.816L418.996 388.456L397.172 410.216L396.596 431.464L417.844 430.888Z" fill="#2BAAAA"/>
<path d="M370.227 380.264L388.275 362.216L388.403 344.296L370.547 344.488L352.499 362.536L352.307 380.392L370.227 380.264Z" fill="#2BAAAA"/>
<path d="M347.444 443.304L347.636 435.944L369.46 414.12L390.708 413.544L390.132 434.792L381.62 443.304H347.444Z" fill="#2BAAAA"/>
<path d="M489.075 359.72L510.899 337.896L511.475 316.648L490.227 317.224L468.403 339.048L467.827 360.296L489.075 359.72Z" fill="#2BAAAA"/>
<path d="M495.347 380.904L495.923 359.656L510.899 344.744V380.456L495.347 380.904Z" fill="#2BAAAA"/>
<path d="M494.131 311.144L494.707 289.896L510.899 274.984V310.76L494.131 311.144Z" fill="#2BAAAA"/>
</g>
<mask id="mask3_101_4627" style="mask-type:luminance" maskUnits="userSpaceOnUse" x="0" y="222" width="256" height="222">
<path d="M256 443.317V222.158H0V443.317H256Z" fill="white"/>
</mask>
<g mask="url(#mask3_101_4627)">
<path d="M46.131 406.312L25.715 385.96L25.459 365.8L45.619 366.056L66.035 386.408L66.291 406.568L46.131 406.312Z" fill="#2BAAAA"/>
<path d="M93.8752 359.272L72.3712 337.768L72.1152 316.584L93.3632 316.84L114.867 338.344L115.123 359.592L93.8752 359.272Z" fill="#2BAAAA"/>
<path d="M93.8752 287.336L72.3712 265.832L72.1152 244.648L93.3632 244.904L114.867 266.408L115.123 287.656L93.8752 287.336Z" fill="#2BAAAA"/>
<path d="M141.876 310.184L121.652 289.896L121.524 269.736L141.684 269.864L161.972 290.152L162.036 310.248L141.876 310.184Z" fill="#2BAAAA"/>
<path d="M189.364 262.952L169.14 242.728L169.012 222.568L189.172 222.632L209.46 242.92L209.524 263.08L189.364 262.952Z" fill="#2BAAAA"/>
<path d="M165.94 288.168L143.924 266.152L143.476 244.648L164.98 245.096L186.996 267.112L187.444 288.616L165.94 288.168Z" fill="#2BAAAA"/>
<path d="M165.684 359.528L144.116 337.96L143.668 316.776L164.788 317.224L186.356 338.856L186.804 359.976L165.684 359.528Z" fill="#2BAAAA"/>
<path d="M189.299 332.904L170.355 313.96L170.291 295.08L189.171 295.144L208.115 314.088L208.179 332.968L189.299 332.904Z" fill="#2BAAAA"/>
<path d="M254.964 360.104V335.08L237.172 317.288L215.924 316.84L216.372 338.088L238.068 359.784L254.964 360.104Z" fill="#2BAAAA"/>
<path d="M254.964 288.296V263.208L237.172 245.416L215.924 244.968L216.372 266.216L238.068 287.912L254.964 288.296Z" fill="#2BAAAA"/>
<path d="M188.724 406.44L168.437 386.088L168.629 365.608L189.109 365.416L209.461 385.704L209.269 406.248L188.724 406.44Z" fill="#2BAAAA"/>
<path d="M254.963 432.296V406.824L237.171 388.968L215.731 388.264L216.435 409.64L238.515 431.72L254.963 432.296Z" fill="#2BAAAA"/>
<path d="M22.1311 287.528L0.62707 266.024L0.371094 244.776L21.5551 245.096L43.0591 266.6L43.3791 287.784L22.1311 287.528Z" fill="#2BAAAA"/>
<path d="M166.131 431.528L144.243 409.576L143.731 388.136L165.171 388.648L187.059 410.6L187.571 431.976L166.131 431.528Z" fill="#2BAAAA"/>
<path d="M230.196 443.304V434.216L213.492 417.576L196.916 417.512L196.98 434.088L206.26 443.304H230.196Z" fill="#2BAAAA"/>
<path d="M86.7714 443.304L86.6434 434.792L69.8754 417.96L53.2354 417.832L53.4273 434.472L62.1954 443.304H86.7714Z" fill="#2BAAAA"/>
<path d="M70.0684 375.272L56.7564 362.024L56.5645 348.84L69.7484 349.032L83.0604 362.344L83.1884 375.464L70.0684 375.272Z" fill="#2BAAAA"/>
<path d="M20.0204 443.304L18.9964 435.496L2.16445 418.664L0.564453 418.408V443.048L0.884453 443.304H20.0204Z" fill="#2BAAAA"/>
<path d="M117.427 399.144L104.115 385.832L103.987 372.648L117.107 372.84L130.419 386.152L130.547 399.272L117.427 399.144Z" fill="#2BAAAA"/>
<path d="M117.428 329.128L102.644 314.408V299.624H117.428L132.148 314.408L132.212 329.192L117.428 329.128Z" fill="#2BAAAA"/>
<path d="M117.748 255.72L104.372 242.344L104.18 229.16L117.428 229.288L130.74 242.664L130.932 255.912L117.748 255.72Z" fill="#2BAAAA"/>
<path d="M82.867 231.144L82.803 222.312H61.043L69.683 230.952L82.867 231.144Z" fill="#2BAAAA"/>
<path d="M160.244 237.16L160.052 222.312H127.604L141.876 236.904L160.244 237.16Z" fill="#2BAAAA"/>
<path d="M226.867 231.144L226.739 222.312H205.043L213.619 230.952L226.867 231.144Z" fill="#2BAAAA"/>
<path d="M213.299 375.4L199.987 362.088L199.859 348.84L213.043 348.968L226.355 362.28L226.483 375.464L213.299 375.4Z" fill="#2BAAAA"/>
<path d="M213.556 306.216L197.172 289.832L196.979 273.64L213.108 273.832L229.492 290.216L229.683 306.408L213.556 306.216Z" fill="#2BAAAA"/>
<path d="M254.964 323.624V298.472L246.324 298.536V314.92L254.964 323.624Z" fill="#2BAAAA"/>
<path d="M254.988 250.472V229.352L246.796 229.416V243.176L254.988 250.472Z" fill="#2BAAAA"/>
<path d="M254.963 393.256V372.84H248.371V386.216L254.963 393.256Z" fill="#2BAAAA"/>
<path d="M46.4504 333.352L27.1863 314.088L26.6104 295.336L45.3623 295.912L64.6263 315.176L65.2023 333.928L46.4504 333.352Z" fill="#2BAAAA"/>
<path d="M69.6193 306.408L53.2993 290.152L53.2354 273.96L69.4273 274.024L85.7473 290.344L85.8114 306.536L69.6193 306.408Z" fill="#2BAAAA"/>
<path d="M46.4511 263.016L25.779 242.344L25.3311 222.184L45.555 222.632L66.163 243.24L66.6111 263.464L46.4511 263.016Z" fill="#2BAAAA"/>
<path d="M22.3873 430.888L0.56332 409.064L-0.0126953 387.816L21.2353 388.456L43.0593 410.216L43.6353 431.464L22.3873 430.888Z" fill="#2BAAAA"/>
<path d="M94.1314 430.888L72.3074 409.064L71.7314 387.816L92.9794 388.456L114.803 410.216L115.379 431.464L94.1314 430.888Z" fill="#2BAAAA"/>
<path d="M141.811 380.264L123.763 362.216L123.571 344.296L141.491 344.488L159.539 362.536L159.667 380.392L141.811 380.264Z" fill="#2BAAAA"/>
<path d="M164.532 443.304L164.34 435.944L142.516 414.12L121.268 413.544L121.908 434.792L130.356 443.304H164.532Z" fill="#2BAAAA"/>
<path d="M22.9645 359.72L1.14043 337.896L0.564453 316.648L21.8125 317.224L43.6364 339.048L44.2125 360.296L22.9645 359.72Z" fill="#2BAAAA"/>
<path d="M16.6277 380.904L16.0517 359.656L1.13965 344.744V380.456L16.6277 380.904Z" fill="#2BAAAA"/>
<path d="M17.9077 311.144L17.2677 289.896L1.13965 274.984V310.76L17.9077 311.144Z" fill="#2BAAAA"/>
</g>
</g>
</svg>
