<svg width="78" height="97" viewBox="0 0 78 97" fill="none" xmlns="http://www.w3.org/2000/svg">
<g>
<path d="M39 0C39 0 39 0 39 0C39 0 39 0 39 0ZM39 0C39 0 39 0 39 0C39 0 39 0 39 0ZM39 0C39 0 39 0 39 0C39 0 39 0 39 0ZM39 0C39 0 39 0 39 0C39 0 39 0 39 0ZM39 0C39 0 39 0 39 0C39 0 39 0 39 0ZM39 0C39 0 39 0 39 0C39 0 39 0 39 0ZM39 0C39 0 39 0 39 0C39 0 39 0 39 0ZM39 0C39 0 39 0 39 0C39 0 39 0 39 0ZM39 0C39 0 39 0 39 0C39 0 39 0 39 0ZM39 0C39 0 39 0 39 0C39 0 39 0 39 0ZM39 0C39 0 39 0 39 0C39 0 39 0 39 0ZM39 0C39 0 39 0 39 0C39 0 39 0 39 0ZM39 0C39 0 39 0 39 0C39 0 39 0 39 0ZM39 0C39 0 39 0 39 0C39 0 39 0 39 0Z" fill="#00B2A9"/>
<text x="0" y="90" font-family="Arial, Helvetica, sans-serif" font-size="32" font-weight="bold" fill="#000">potent<tspan fill="#00B2A9">IA</tspan></text>
</g>
</svg>
